<svg width="1413" height="768" viewBox="0 0 1413 768" fill="none" xmlns="http://www.w3.org/2000/svg">
<rect width="1413" height="768" fill="#291940"/>
<path d="M451.56 429.92H478.8C487.04 429.92 492.92 432.6 496.44 437.96C499.96 443.24 501.72 451 501.72 461.24C501.72 471.48 500.16 479.2 497.04 484.4C493.92 489.6 488.32 492.2 480.24 492.2H471.84V533H451.56V429.92ZM473.04 473.6C475.52 473.6 477.32 473.16 478.44 472.28C479.64 471.32 480.4 470 480.72 468.32C481.12 466.56 481.32 464.08 481.32 460.88C481.32 456.56 480.84 453.44 479.88 451.52C478.92 449.6 477 448.64 474.12 448.64H471.84V473.6H473.04ZM508.162 429.92H539.842C544.882 429.92 548.762 431.08 551.482 433.4C554.282 435.64 556.162 438.84 557.122 443C558.082 447.08 558.562 452.32 558.562 458.72C558.562 464.56 557.802 469.12 556.282 472.4C554.762 475.68 552.122 477.96 548.362 479.24C551.482 479.88 553.722 481.44 555.082 483.92C556.522 486.4 557.242 489.76 557.242 494L557.002 533H536.842V492.68C536.842 489.8 536.282 487.96 535.162 487.16C534.042 486.36 532.002 485.96 529.042 485.96V533H508.162V429.92ZM534.082 468.08C536.962 468.08 538.402 464.96 538.402 458.72C538.402 456 538.282 453.96 538.042 452.6C537.802 451.24 537.362 450.32 536.722 449.84C536.082 449.28 535.162 449 533.962 449H529.162V468.08H534.082ZM589.949 533.96C581.629 533.96 575.309 531.44 570.989 526.4C566.669 521.28 564.509 514.12 564.509 504.92V455.84C564.509 446.96 566.669 440.28 570.989 435.8C575.309 431.24 581.629 428.96 589.949 428.96C598.269 428.96 604.589 431.24 608.909 435.8C613.229 440.28 615.389 446.96 615.389 455.84V504.92C615.389 514.2 613.229 521.36 608.909 526.4C604.589 531.44 598.269 533.96 589.949 533.96ZM589.949 515C591.789 515 593.029 514.2 593.669 512.6C594.309 511 594.629 508.76 594.629 505.88V455.48C594.629 453.24 594.309 451.44 593.669 450.08C593.109 448.64 591.909 447.92 590.069 447.92C586.629 447.92 584.909 450.52 584.909 455.72V506C584.909 508.96 585.269 511.2 585.989 512.72C586.709 514.24 588.029 515 589.949 515ZM632.588 533V449.72H620.348V429.92H665.468V449.72H653.228V533H632.588ZM671.287 533V429.92H712.567V449.84H692.287V469.88H711.727V489.32H692.287V512.96H713.887V533H671.287ZM744.74 533.96C737.22 533.96 731.18 531.6 726.62 526.88C722.14 522.16 719.9 515.68 719.9 507.44V459.92C719.9 449.68 721.94 441.96 726.02 436.76C730.1 431.56 736.5 428.96 745.22 428.96C752.82 428.96 758.94 431.04 763.58 435.2C768.22 439.36 770.54 445.36 770.54 453.2V470.96H750.02V455.72C750.02 452.76 749.66 450.72 748.94 449.6C748.22 448.48 746.98 447.92 745.22 447.92C743.38 447.92 742.1 448.56 741.38 449.84C740.74 451.12 740.42 453 740.42 455.48V507.2C740.42 509.92 740.82 511.92 741.62 513.2C742.42 514.4 743.62 515 745.22 515C748.42 515 750.02 512.4 750.02 507.2V488.6H770.78V508.04C770.78 525.32 762.1 533.96 744.74 533.96ZM786.456 533V449.72H774.216V429.92H819.336V449.72H807.096V533H786.456ZM824.194 533V429.92H844.114V533H824.194ZM876.941 533.96C868.621 533.96 862.301 531.44 857.981 526.4C853.661 521.28 851.501 514.12 851.501 504.92V455.84C851.501 446.96 853.661 440.28 857.981 435.8C862.301 431.24 868.621 428.96 876.941 428.96C885.261 428.96 891.581 431.24 895.901 435.8C900.221 440.28 902.381 446.96 902.381 455.84V504.92C902.381 514.2 900.221 521.36 895.901 526.4C891.581 531.44 885.261 533.96 876.941 533.96ZM876.941 515C878.781 515 880.021 514.2 880.661 512.6C881.301 511 881.621 508.76 881.621 505.88V455.48C881.621 453.24 881.301 451.44 880.661 450.08C880.101 448.64 878.901 447.92 877.061 447.92C873.621 447.92 871.901 450.52 871.901 455.72V506C871.901 508.96 872.261 511.2 872.981 512.72C873.701 514.24 875.021 515 876.941 515ZM910.701 533V429.92H931.941L941.421 479.24V429.92H961.341V533H941.181L930.861 481.4V533H910.701Z" fill="#D9D9D9"/>
<path d="M707 378.75L669.172 358.58C658.388 352.843 649.37 344.278 643.085 333.803C636.801 323.328 633.487 311.34 633.5 299.125V219.5C633.503 216.252 634.795 213.138 637.092 210.842C639.388 208.545 642.502 207.253 645.75 207.25H768.25C771.498 207.253 774.612 208.545 776.909 210.842C779.205 213.138 780.497 216.252 780.5 219.5V299.125C780.513 311.34 777.199 323.328 770.915 333.803C764.63 344.278 755.612 352.843 744.828 358.58L707 378.75ZM645.75 219.5V299.125C645.74 309.12 648.452 318.929 653.595 327.499C658.738 336.069 666.117 343.077 674.942 347.77L707 364.865L739.058 347.776C747.884 343.082 755.264 336.074 760.407 327.502C765.55 318.931 768.261 309.121 768.25 299.125V219.5H645.75Z" fill="#D9D9D9"/>
<path d="M707 349.822V231.75H756V297.931C756 305.694 753.891 313.312 749.9 319.971C745.909 326.63 740.184 332.08 733.337 335.74L707 349.822Z" fill="#D9D9D9"/>
</svg>
